<?xml version="1.0" standalone="no"?>
<!DOCTYPE svg PUBLIC "-//W3C//DTD SVG 20010904//EN"
 "http://www.w3.org/TR/2001/REC-SVG-20010904/DTD/svg10.dtd">
<svg version="1.0" xmlns="http://www.w3.org/2000/svg"
 width="705.000000pt" height="652.000000pt" viewBox="0 0 705.000000 652.000000"
 preserveAspectRatio="xMidYMid meet">

<g transform="translate(0.000000,652.000000) scale(0.100000,-0.100000)"
fill="#000000" stroke="none">
<path d="M4810 6400 c-189 -22 -397 -108 -545 -224 -22 -17 -110 -96 -196
-176 -223 -207 -349 -276 -579 -316 -114 -19 -333 -15 -535 11 -185 24 -475
17 -595 -15 -162 -42 -285 -115 -278 -164 5 -33 50 -56 143 -72 173 -30 292
-86 404 -190 56 -51 111 -137 97 -151 -10 -10 -191 55 -306 109 -58 28 -148
65 -200 83 -122 41 -171 67 -203 105 -37 43 -44 89 -26 160 3 13 -13 15 -106
14 -63 -1 -139 -9 -178 -18 -324 -77 -597 -340 -690 -664 l-23 -82 -104 -71
c-184 -124 -379 -297 -489 -434 -103 -127 -119 -166 -81 -200 20 -18 22 -18
83 4 217 81 292 102 444 126 l43 7 0 -110 0 -110 -72 -43 c-115 -68 -187 -123
-277 -212 -325 -318 -485 -753 -468 -1272 6 -160 23 -280 47 -325 6 -11 20
-25 31 -31 32 -17 52 9 123 157 77 159 134 250 209 329 l56 60 1 -143 0 -143
-44 -107 c-50 -123 -80 -231 -97 -351 -17 -120 -6 -401 20 -513 70 -303 215
-573 413 -769 92 -91 132 -115 172 -105 36 9 39 31 16 140 -22 108 -26 258 -9
321 l11 39 32 -79 c89 -218 177 -346 371 -540 120 -120 168 -161 239 -203 121
-70 274 -128 420 -159 110 -23 136 -25 286 -20 281 9 471 68 731 228 l104 64
735 3 c1352 4 1414 5 1502 30 191 52 353 147 479 280 179 186 285 418 309 675
8 76 10 624 7 1717 -3 1469 -5 1611 -20 1675 -83 341 -259 590 -524 741 -86
49 -255 108 -290 101 -72 -14 101 145 226 207 64 32 150 63 239 86 45 12 82
40 82 64 0 8 -14 29 -31 46 -17 17 -30 33 -28 35 9 8 495 45 787 58 99 5 146
54 126 133 -24 94 -151 103 -202 14 l-16 -28 -156 -7 c-175 -9 -416 -2 -535
15 -111 16 -176 33 -355 96 -85 30 -188 63 -229 74 -161 45 -339 59 -501 40z
m-6 -136 c9 -22 -19 -41 -106 -69 -168 -56 -288 -139 -389 -272 -62 -81 -71
-87 -89 -52 -15 27 20 87 103 175 106 114 226 186 367 223 70 19 106 17 114
-5z m-2449 -1125 c78 -14 97 -25 93 -52 -3 -19 -8 -22 -48 -19 -25 1 -137 3
-250 5 -276 3 -396 -17 -635 -105 -117 -44 -206 -85 -265 -124 -42 -28 -70
-23 -70 11 0 80 407 244 705 284 142 20 359 19 470 0z m-1365 -1174 c0 -16 -9
-30 -27 -41 -236 -142 -386 -280 -508 -467 -63 -98 -80 -118 -98 -115 -35 5
-31 34 14 111 110 188 311 387 496 493 90 51 123 56 123 19z m2378 -131 c435
-257 902 -531 1132 -664 143 -82 176 -110 191 -161 9 -29 8 -43 -6 -72 -9 -20
-22 -40 -28 -45 -7 -6 -104 -63 -217 -127 -359 -207 -452 -260 -590 -342 -74
-44 -223 -131 -330 -193 -107 -62 -238 -139 -290 -170 -52 -32 -112 -63 -133
-70 -76 -24 -162 12 -196 84 -21 42 -21 53 -21 914 0 927 -1 912 47 954 33 30
95 48 146 43 40 -3 90 -29 295 -151z"/>
</g>
</svg>
